# xmcd CD database file
#
# Track frame offsets:
#	150
#	22636
#	39798
#	54414
#	74507
#	96360
#	112429
#	134973
#	152460
#	175376
#	194158
#	210271
#	226301
#	244222
#	265820
#	283175
#	308609
#
# Disc length: 4332 seconds
#
# Revision: 1
# Processed by: cddbd v1.5.2PL0 Copyright (c) Steve Scherf et al.
# Submitted via: CDex 1.70beta2
#
DISCID=f710ea11
DTITLE=Various Artist - Top Hits USA RJ45
DYEAR=2007
DGENRE=Jazz
TTITLE0=Norman Brown - Let's Take A Ride
TTITLE1=Jackiem Joyner - Stay With Me Tonight
TTITLE2=Kenny G - You Raise Me Up
TTITLE3=Keiko Matsui - Black River
TTITLE4=Paul Taylor - Ladies' Choice
TTITLE5=Jay Soto - Slammin'
TTITLE6=Nils - Catnap
TTITLE7=Pieces Of A Dream - Teresa
TTITLE8=Randy Crawford and Joe Sample - Rio De Janeiro Blue
TTITLE9=Michael Lington - Tell Me All About It
TTITLE10=Oil Silk - Eve's Song
TTITLE11=Andre Ward - Andre's Theme
TTITLE12=David Benoit - Water To Drink (Agua De Beber)
TTITLE13=Andrew Neu - Wine
TTITLE14=Will Donato - Wanting
TTITLE15=Lao Tizer - Uptown
TTITLE16=Jeff Kashiwa - Forever (Radio Edit)
EXTD=YEAR: 2007
EXTT0=
EXTT1=
EXTT2=
EXTT3=
EXTT4=
EXTT5=
EXTT6=
EXTT7=
EXTT8=
EXTT9=
EXTT10=
EXTT11=
EXTT12=
EXTT13=
EXTT14=
EXTT15=
EXTT16=
PLAYORDER=
